<?xml version="1.0" encoding="utf-8"?>
<svg version="1.1" id="OBJECTS" xmlns="http://www.w3.org/2000/svg"
	xmlns:xlink="http://www.w3.org/1999/xlink" x="0px" y="0px"
	viewBox="0 0 800 800" style="enable-background:new 0 0 800 800;" xml:space="preserve">
<style type="text/css">
	.st0{fill:#FFFFFF;}
	.st1{fill:#32BA46;}
	.st2{fill:none;}
</style>
<path class="st0" d="M700.2,968.8l-0.3-14L700.2,968.8z"/>

	
		
			<path class="st1" d="M407.1,772.5c-63.5,0-125.8-16.8-181-48.7L84.7,772.5l29.1-149.7c-45.6-62.4-69.6-135.9-69.6-213.2
				C44.2,209.6,207,46.8,407.1,46.8c200.1,0,362.9,162.8,362.9,362.9C769.9,609.7,607.2,772.5,407.1,772.5z"/>
		
	
	
		
			<path class="st2" d="M407.1,190.2c-121.2,0-219.4,98.3-219.4,219.4c0,50.9,17.5,97.7,46.6,134.9l-14.7,75.5l71.3-24.6
				c33.7,21.1,73.5,33.6,116.2,33.6c121.2,0,219.5-98.2,219.5-219.4C626.5,288.5,528.3,190.2,407.1,190.2z"/>
			<path class="st0" d="M407.1,646.7c-41.5,0-82.2-11-118.2-31.8l-92.4,31.8l19-97.8c-29.7-40.8-45.4-88.8-45.4-139.3
				c0-130.7,106.3-237.1,237.1-237.1c130.7,0,237.1,106.3,237.1,237.1C644.1,540.4,537.8,646.7,407.1,646.7z M293.1,576.1l7.1,4.5
				c32.2,20.2,69.1,30.9,106.8,30.9c111.3,0,201.8-90.5,201.8-201.8c0-111.3-90.5-201.8-201.8-201.8
				c-111.3,0-201.8,90.5-201.8,201.8c0,45.3,14.8,88.2,42.9,124l5,6.3l-10.4,53.4L293.1,576.1z"/>
		
		<path class="st0" d="M287.4,318.6c0,0,13.9-24.3,25.3-25.7c11.3-1.4,25.9-1.4,29.9,6c3.9,7.4,21.5,50.5,21.5,50.5s3,7.4-1.6,14.6
			c-4.6,7.2-15.1,17.6-15.1,17.6s-5.8,7.4,0,15.3c5.8,7.9,14.8,22.3,33.4,40.9c18.5,18.6,54.2,31.8,54.2,31.8s5.1,0.7,8.3-2.5
			c3.2-3.2,20.8-25.2,20.8-25.2s5.6-7.3,15-3c9.4,4.3,50,24.5,50,24.5s4.8,1.7,4.8,8.9c0,7.2-2.9,24.7-8.8,30.7
			c-5.9,5.9-23.3,24.3-49.4,24.3c-26.1,0-88.2-21.2-121.4-54.3c-33.1-33.1-62.5-66.7-69.5-97.3C277.9,345,278.8,331.1,287.4,318.6z"
			/>
	

</svg>